<?xml version="1.0" standalone="no"?>
<!DOCTYPE svg PUBLIC "-//W3C//DTD SVG 20010904//EN"
 "http://www.w3.org/TR/2001/REC-SVG-20010904/DTD/svg10.dtd">
<svg version="1.0" xmlns="http://www.w3.org/2000/svg"
 width="794.000000pt" height="535.000000pt" viewBox="0 0 794.000000 535.000000"
 preserveAspectRatio="xMidYMid meet">

<g transform="translate(0.000000,535.000000) scale(0.100000,-0.100000)"
fill="#000000" stroke="none">
<path d="M4062 4393 l1 -58 6 45 7 45 19 -45 19 -44 20 44 21 45 6 -45 6 -45
1 58 c2 61 -12 76 -29 30 -5 -16 -12 -35 -16 -43 -4 -10 -12 -2 -25 28 -10 23
-23 42 -28 42 -6 0 -9 -26 -8 -57z"/>
<path d="M4432 4395 c0 -40 2 -52 7 -35 l7 25 12 -22 c7 -13 18 -23 24 -23 6
0 3 9 -7 20 -17 19 -17 21 0 40 10 11 13 20 8 20 -6 0 -17 -7 -24 -17 -13 -15
-15 -13 -20 18 -5 26 -6 20 -7 -26z"/>
<path d="M4224 4409 c17 -11 17 -12 -5 -23 -27 -13 -32 -37 -9 -44 12 -4 13
-3 3 10 -14 16 -8 28 15 28 8 0 12 -6 9 -15 -4 -8 -2 -17 4 -21 7 -4 9 8 7 32
-2 30 -8 40 -23 42 -19 3 -19 2 -1 -9z"/>
<path d="M4280 4410 c-13 -9 -12 -13 8 -29 27 -24 28 -35 2 -28 -11 3 -20 1
-20 -4 0 -5 9 -9 20 -9 27 0 38 30 17 42 -21 11 -22 32 -2 24 8 -3 15 -1 15 4
0 13 -21 12 -40 0z"/>
<path d="M4343 4385 c2 -36 5 -40 30 -41 25 -1 27 1 26 40 l-2 41 -6 -35 c-4
-22 -12 -35 -21 -35 -9 0 -18 13 -22 35 l-6 35 1 -40z"/>
<path d="M1821 4033 c-18 -12 -26 -13 -29 -5 -2 7 -17 12 -33 12 -21 0 -32 -6
-38 -22 -5 -13 -19 -45 -30 -72 l-22 -50 -17 35 c-12 23 -27 36 -49 43 -18 5
-33 15 -33 22 0 16 10 17 44 5 18 -8 28 -6 37 5 18 22 -4 34 -62 34 -53 0 -72
-16 -67 -56 2 -22 11 -30 46 -42 23 -7 42 -18 42 -23 0 -18 -29 -21 -59 -6
-26 13 -30 13 -35 0 -10 -25 -7 -30 32 -41 24 -8 49 -8 69 -3 16 5 42 6 57 4
18 -4 31 0 39 12 20 26 81 17 85 -12 4 -26 24 -30 42 -8 10 12 17 11 50 -11
52 -35 69 -29 88 30 16 47 44 78 58 64 3 -4 -1 -25 -10 -48 -19 -49 -20 -50
-2 -50 7 0 16 10 18 23 3 12 17 53 31 90 22 56 24 69 12 73 -16 7 -157 -115
-148 -129 2 -4 10 -3 17 2 9 8 11 2 8 -24 -2 -19 -9 -35 -15 -35 -14 0 -77 43
-77 52 0 4 21 27 46 50 49 45 69 74 56 82 -5 3 -25 -17 -45 -44 -38 -50 -68
-69 -47 -30 6 12 10 35 8 53 -4 38 -30 46 -67 20z m52 0 c3 -5 -2 -30 -10 -56
-12 -40 -17 -46 -28 -37 -27 22 -28 50 -4 76 23 25 35 29 42 17z m190 -41 c-3
-12 -12 -22 -19 -22 -18 0 -18 9 3 32 20 22 24 19 16 -10z m-293 -38 c0 -17
-5 -24 -20 -24 -23 0 -24 1 -9 34 14 30 29 25 29 -10z"/>
<path d="M1180 3955 c0 -69 3 -85 15 -85 9 0 15 9 15 25 0 22 4 25 35 25 38 0
75 28 75 58 0 10 -7 28 -16 40 -12 18 -25 22 -70 22 l-54 0 0 -85z m98 53 c20
-20 14 -48 -15 -59 -38 -14 -53 -5 -53 36 0 32 3 35 28 35 15 0 33 -5 40 -12z"/>
<path d="M1340 3972 c0 -81 18 -106 77 -106 53 0 73 30 73 110 0 50 -3 64 -15
64 -12 0 -15 -14 -15 -63 0 -67 -10 -87 -45 -87 -35 0 -45 20 -45 87 0 49 -3
63 -15 63 -12 0 -15 -14 -15 -68z"/>
<path d="M4060 3633 c0 -6 8 -17 18 -24 16 -13 16 -13 2 6 -8 11 -16 22 -17
24 -2 2 -3 0 -3 -6z"/>
<path d="M4098 3610 c-3 -17 -1 -33 4 -36 4 -3 8 11 8 30 0 44 -6 47 -12 6z"/>
<path d="M4252 3605 c0 -22 2 -32 5 -22 2 9 11 17 18 17 7 0 16 -8 18 -17 3
-10 5 0 5 22 0 22 -2 32 -5 23 -2 -10 -11 -18 -18 -18 -7 0 -16 8 -18 18 -3 9
-5 -1 -5 -23z"/>
<path d="M4470 3631 c0 -5 -9 -11 -21 -14 -22 -6 -24 -38 -1 -43 7 -1 8 0 2 3
-15 7 -12 33 4 33 8 0 17 -10 19 -22 3 -14 5 -9 6 15 0 20 -1 37 -4 37 -3 0
-5 -4 -5 -9z"/>
<path d="M4563 3605 c0 -22 2 -30 4 -17 2 12 2 30 0 40 -3 9 -5 -1 -4 -23z"/>
<path d="M4134 3605 c-4 -9 -2 -21 4 -27 15 -15 44 -1 40 19 -4 23 -36 29 -44
8z m36 -10 c0 -8 -7 -15 -15 -15 -8 0 -15 7 -15 15 0 8 7 15 15 15 8 0 15 -7
15 -15z"/>
<path d="M4338 3612 c11 -7 11 -10 -2 -15 -18 -7 -22 -27 -5 -27 5 0 7 5 4 10
-3 6 -2 10 4 10 5 0 12 -6 15 -12 3 -7 4 -2 3 11 -1 14 -9 26 -17 28 -12 4
-12 3 -2 -5z"/>
<path d="M4380 3611 c0 -6 6 -8 14 -5 9 4 16 -3 19 -18 5 -22 5 -22 4 2 -2 24
-37 44 -37 21z"/>
<path d="M4525 3610 c3 -5 8 -10 11 -10 2 0 4 5 4 10 0 6 -5 10 -11 10 -5 0
-7 -4 -4 -10z"/>
<path d="M4588 3593 c5 -21 7 -23 10 -9 2 10 0 22 -6 28 -6 6 -7 0 -4 -19z"/>
<path d="M4630 3616 c0 -2 7 -7 16 -10 8 -3 12 -2 9 4 -6 10 -25 14 -25 6z"/>
<path d="M4682 3595 c0 -16 2 -22 5 -12 2 9 2 23 0 30 -3 6 -5 -1 -5 -18z"/>
<path d="M4708 3593 c5 -21 7 -23 10 -9 2 10 0 22 -6 28 -6 6 -7 0 -4 -19z"/>
<path d="M4744 3606 c-7 -18 3 -36 19 -36 7 0 6 4 -3 10 -13 8 -12 10 3 10 10
0 17 5 15 12 -7 19 -27 21 -34 4z"/>
<path d="M4500 3578 c0 -4 6 -8 14 -8 8 0 17 4 20 8 2 4 -4 8 -15 8 -10 0 -19
-4 -19 -8z"/>
<path d="M4640 3580 c-9 -6 -10 -10 -3 -10 6 0 15 5 18 10 8 12 4 12 -15 0z"/>
<path d="M797 3552 c-33 -36 -10 -93 36 -91 19 0 19 2 -5 10 -48 18 -48 70 0
88 23 8 24 10 6 10 -11 1 -28 -7 -37 -17z"/>
<path d="M879 3554 c-12 -14 -10 -19 14 -38 33 -26 34 -34 5 -46 -23 -9 -23
-9 -2 -9 12 -1 28 6 35 15 12 14 10 19 -14 38 -33 26 -34 34 -4 46 22 9 22 9
1 9 -12 1 -28 -6 -35 -15z"/>
<path d="M961 3513 c1 -32 4 -46 6 -30 5 34 26 35 42 1 6 -15 14 -24 18 -21 3
4 -2 18 -11 32 -10 15 -12 25 -6 25 6 0 10 10 8 23 -2 16 -11 23 -30 25 -28 3
-28 3 -27 -55z m44 27 c0 -8 -8 -16 -17 -18 -13 -2 -18 3 -18 18 0 15 5 20 18
18 9 -2 17 -10 17 -18z"/>
<path d="M1101 3513 c1 -32 4 -48 6 -36 3 13 13 23 26 25 14 2 23 11 25 27 4
25 -12 41 -40 41 -15 0 -18 -9 -17 -57z m44 22 c0 -11 -8 -21 -17 -23 -14 -3
-18 3 -18 23 0 20 4 26 18 23 9 -2 17 -12 17 -23z"/>
<path d="M1192 3529 c-2 -52 15 -75 48 -64 17 5 20 14 18 58 l-1 52 -4 -45
c-3 -25 -8 -49 -13 -54 -16 -16 -39 14 -43 57 l-4 42 -1 -46z"/>
<path d="M1303 3563 c-22 -8 -14 -39 13 -52 30 -13 27 -36 -5 -35 -11 0 -21
-3 -21 -8 0 -9 22 -11 44 -2 24 9 19 39 -9 54 -31 17 -32 28 -2 40 12 5 15 9
7 9 -8 -1 -21 -3 -27 -6z"/>
<path d="M1386 3523 c-18 -53 -20 -77 -5 -50 13 22 45 22 58 0 5 -10 12 -16
14 -13 7 7 -34 110 -43 110 -5 0 -15 -21 -24 -47z m32 -21 c-18 -8 -25 4 -15
28 l10 25 6 -25 c4 -14 4 -26 -1 -28z"/>
<path d="M1482 3515 c0 -41 2 -51 7 -30 l6 29 18 -27 c9 -15 22 -27 28 -27 5
0 0 13 -12 30 -22 29 -22 30 -4 50 10 11 16 23 12 26 -3 3 -14 -7 -24 -22
l-18 -28 -6 29 c-5 21 -7 11 -7 -30z"/>
<path d="M1586 3539 c-7 -19 -17 -45 -20 -59 -6 -23 -6 -23 7 -7 17 21 57 23
57 2 0 -8 5 -15 11 -15 7 0 8 7 4 18 -4 9 -12 31 -17 47 -17 48 -26 51 -42 14z
m33 -31 c1 -5 -6 -8 -14 -8 -16 0 -19 9 -8 36 6 16 7 16 14 -2 4 -10 8 -22 8
-26z"/>
<path d="M1723 3563 c-22 -8 -14 -39 13 -52 30 -13 27 -36 -5 -35 -11 0 -21
-3 -21 -8 0 -9 22 -11 44 -2 24 9 19 39 -9 54 -31 17 -32 28 -2 40 12 5 15 9
7 9 -8 -1 -21 -3 -27 -6z"/>
<path d="M1790 3541 c0 -45 17 -81 38 -81 30 0 42 21 40 70 l-1 45 -4 -42 c-7
-77 -53 -84 -53 -7 0 24 -4 44 -10 44 -5 0 -10 -13 -10 -29z"/>
<path d="M1902 3518 c-2 -57 -2 -58 26 -57 22 1 23 2 5 6 -19 4 -23 12 -26 56
l-3 52 -2 -57z"/>
<path d="M1979 3554 c-12 -14 -10 -19 15 -39 31 -24 27 -50 -5 -42 -11 3 -19
1 -19 -5 0 -5 12 -8 28 -6 38 4 43 43 7 60 -30 13 -28 33 4 32 11 0 21 3 21 8
0 14 -37 9 -51 -8z"/>
<path d="M2060 3515 c0 -54 1 -55 28 -54 23 2 24 2 5 6 -14 3 -23 12 -23 23 0
11 9 20 23 23 l22 4 -22 2 c-16 1 -23 7 -23 20 0 12 8 21 23 24 19 4 18 4 -5
6 -27 1 -28 0 -28 -54z"/>
<path d="M2142 3518 c-2 -57 -2 -58 26 -57 22 1 23 2 5 6 -19 4 -23 12 -26 56
l-3 52 -2 -57z"/>
<path d="M2210 3515 c0 -56 0 -56 28 -53 25 3 27 6 27 53 0 47 -2 50 -27 53
-28 3 -28 3 -28 -53z m45 25 c0 -8 -8 -16 -17 -18 -13 -2 -18 3 -18 18 0 15 5
20 18 18 9 -2 17 -10 17 -18z m0 -50 c0 -8 -8 -16 -17 -18 -13 -2 -18 3 -18
18 0 15 5 20 18 18 9 -2 17 -10 17 -18z"/>
<path d="M2323 3553 c-3 -10 -12 -33 -19 -52 -17 -40 -17 -41 -4 -41 6 0 10 7
10 15 0 21 39 19 57 -2 13 -16 14 -16 10 -2 -3 10 -11 35 -18 58 -13 44 -26
52 -36 24z m27 -40 c0 -7 -7 -13 -15 -13 -16 0 -19 9 -9 35 5 13 8 14 15 3 5
-7 9 -19 9 -25z"/>
<path d="M2400 3515 c0 -30 5 -55 10 -55 6 0 10 11 10 25 0 14 5 25 10 25 6 0
16 -11 22 -25 6 -14 16 -25 21 -25 5 0 2 11 -7 25 -14 21 -14 28 -4 45 11 17
10 22 -2 30 -8 5 -25 10 -37 10 -21 0 -23 -5 -23 -55z m55 25 c0 -8 -8 -16
-17 -18 -13 -2 -18 3 -18 18 0 15 5 20 18 18 9 -2 17 -10 17 -18z"/>
<path d="M4219 3338 c-1 -7 -1 -21 0 -30 3 -22 -26 -24 -32 -3 -4 11 -4 10 -3
-2 1 -10 11 -19 24 -21 19 -3 22 1 22 32 0 34 -9 51 -11 24z"/>
<path d="M4242 3305 c0 -16 2 -22 5 -12 2 9 2 23 0 30 -3 6 -5 -1 -5 -18z"/>
<path d="M4332 3305 c0 -16 2 -22 5 -12 2 9 2 23 0 30 -3 6 -5 -1 -5 -18z"/>
<path d="M4352 3305 c0 -16 2 -22 5 -12 2 9 2 23 0 30 -3 6 -5 -1 -5 -18z"/>
<path d="M4160 3306 c0 -8 -8 -17 -17 -19 -14 -4 -12 -5 5 -6 16 -1 22 5 22
19 0 11 -2 20 -5 20 -3 0 -5 -6 -5 -14z"/>
<path d="M4073 2924 c21 -7 23 -31 2 -37 -11 -4 -10 -4 2 -3 25 2 23 40 -2 43
-16 1 -16 1 -2 -3z"/>
<path d="M4445 2909 c-17 -17 -17 -19 -2 -14 12 5 17 2 17 -10 0 -11 -5 -15
-16 -11 -8 3 -12 2 -9 -4 15 -24 35 -9 35 25 0 40 1 40 -25 14z"/>
<path d="M6780 2895 l0 -36 21 20 c23 21 20 51 -6 51 -11 0 -15 -10 -15 -35z
m30 10 c0 -8 -4 -15 -10 -15 -5 0 -10 7 -10 15 0 8 5 15 10 15 6 0 10 -7 10
-15z"/>
<path d="M4118 2903 c7 -3 16 -2 19 1 4 3 -2 6 -13 5 -11 0 -14 -3 -6 -6z"/>
<path d="M4165 2901 c-3 -5 0 -13 6 -17 7 -4 9 -3 5 4 -3 5 0 13 6 15 9 4 10
6 1 6 -6 1 -14 -3 -18 -8z"/>
<path d="M4272 2890 c-18 -29 -15 -38 4 -12 9 13 14 25 12 27 -2 2 -9 -5 -16
-15z"/>
<path d="M4336 2902 c-2 -4 4 -8 14 -8 10 0 16 4 14 8 -3 4 -9 8 -14 8 -5 0
-11 -4 -14 -8z"/>
<path d="M4390 2885 c0 -14 2 -25 4 -25 2 0 6 11 8 25 3 14 1 25 -3 25 -5 0
-9 -11 -9 -25z"/>
<path d="M6573 2891 c1 -14 9 -26 17 -28 10 -3 11 -2 4 4 -7 4 -14 17 -17 28
-5 16 -5 15 -4 -4z"/>
<path d="M6633 2875 c0 -22 2 -30 4 -17 2 12 2 30 0 40 -3 9 -5 -1 -4 -23z"/>
<path d="M6660 2903 c5 -2 10 -11 10 -18 0 -7 -5 -16 -10 -18 -6 -3 -5 -4 2
-3 7 2 13 11 13 21 0 10 -6 19 -13 21 -7 1 -8 0 -2 -3z"/>
<path d="M6710 2903 c7 -3 5 -10 -6 -17 -13 -10 -14 -15 -4 -21 9 -5 11 -4 6
3 -4 7 -3 12 3 12 5 0 12 -6 15 -12 3 -7 4 -2 3 11 -1 14 -8 26 -15 27 -7 1
-8 0 -2 -3z"/>
<path d="M6850 2903 c7 -3 5 -10 -6 -17 -13 -10 -14 -15 -4 -21 9 -5 11 -4 6
3 -4 7 -3 12 3 12 5 0 12 -6 15 -12 3 -7 4 -2 3 11 -1 14 -8 26 -15 27 -7 1
-8 0 -2 -3z"/>
<path d="M6935 2901 c-3 -5 0 -13 6 -17 8 -4 7 -9 -2 -15 -11 -7 -10 -9 4 -9
19 0 23 15 6 26 -8 4 -7 9 2 15 10 6 10 9 2 9 -6 0 -14 -4 -18 -9z"/>
<path d="M7000 2904 c0 -5 7 -18 15 -28 8 -11 15 -16 15 -10 0 5 -7 18 -15 28
-8 11 -15 16 -15 10z"/>
<path d="M7054 2895 c-4 -9 -2 -21 4 -27 15 -15 44 -1 40 19 -4 23 -36 29 -44
8z m36 -10 c0 -8 -7 -15 -15 -15 -8 0 -15 7 -15 15 0 8 7 15 15 15 8 0 15 -7
15 -15z"/>
<path d="M7112 2885 c0 -16 2 -22 5 -12 2 9 2 23 0 30 -3 6 -5 -1 -5 -18z"/>
<path d="M7154 2895 c-7 -17 3 -35 19 -34 9 0 9 2 0 6 -19 7 -16 31 5 36 16 4
16 5 -1 6 -10 0 -20 -6 -23 -14z"/>
<path d="M4224 2882 c3 -5 0 -13 -6 -15 -9 -4 -10 -6 -1 -6 17 -1 25 16 12 25
-7 4 -9 3 -5 -4z"/>
<path d="M6899 2882 c9 -7 10 -11 2 -15 -7 -4 -8 -5 0 -3 15 2 13 20 -3 24
-10 3 -10 2 1 -6z"/>
<path d="M6980 2881 c0 -5 5 -13 10 -16 6 -3 10 -2 10 4 0 5 -4 13 -10 16 -5
3 -10 2 -10 -4z"/>
<path d="M4290 2869 c0 -5 5 -7 10 -4 6 3 10 8 10 11 0 2 -4 4 -10 4 -5 0 -10
-5 -10 -11z"/>
<path d="M4340 2866 c7 -7 13 -7 20 0 6 6 3 10 -10 10 -13 0 -16 -4 -10 -10z"/>
<path d="M4168 2863 c7 -3 16 -2 19 1 4 3 -2 6 -13 5 -11 0 -14 -3 -6 -6z"/>
<path d="M6538 2863 c7 -3 16 -2 19 1 4 3 -2 6 -13 5 -11 0 -14 -3 -6 -6z"/>
<path d="M4130 2600 c0 -5 7 -10 15 -10 8 0 15 5 15 10 0 6 -7 10 -15 10 -8 0
-15 -4 -15 -10z"/>
<path d="M4190 2600 c0 -5 7 -10 15 -10 8 0 15 5 15 10 0 6 -7 10 -15 10 -8 0
-15 -4 -15 -10z"/>
<path d="M4240 2600 c0 -5 7 -10 15 -10 8 0 15 5 15 10 0 6 -7 10 -15 10 -8 0
-15 -4 -15 -10z"/>
<path d="M4300 2600 c0 -5 7 -10 15 -10 8 0 15 5 15 10 0 6 -7 10 -15 10 -8 0
-15 -4 -15 -10z"/>
<path d="M4350 2600 c0 -5 7 -10 15 -10 8 0 15 5 15 10 0 6 -7 10 -15 10 -8 0
-15 -4 -15 -10z"/>
<path d="M575 1737 c-64 -14 -103 -37 -119 -72 -9 -18 -23 -35 -31 -39 -31
-11 -3 -186 30 -186 8 0 15 -6 15 -14 0 -21 11 -26 79 -31 59 -4 62 -3 76 24
11 23 12 34 2 60 -11 29 -9 33 14 54 15 12 29 30 33 40 5 15 12 17 36 12 26
-6 31 -3 40 20 15 39 13 65 -5 59 -8 -3 -25 6 -39 21 -41 44 -85 61 -131 52z"/>
<path d="M2653 1700 c-24 -21 -43 -41 -44 -42 0 -2 -4 -44 -8 -94 -6 -70 -12
-98 -30 -122 -12 -18 -18 -32 -12 -32 6 0 22 18 37 40 l26 39 25 -29 c24 -29
94 -57 113 -45 16 10 22 -19 11 -49 -6 -15 -23 -38 -37 -51 -15 -14 -23 -25
-17 -25 20 0 66 61 72 95 3 20 8 35 11 34 3 -1 15 3 28 10 26 14 26 11 8 -51
-18 -56 -12 -82 20 -97 14 -6 24 -19 24 -31 0 -11 5 -20 11 -20 6 0 17 -7 25
-15 9 -8 24 -15 34 -15 21 0 51 -41 48 -67 0 -10 0 -26 0 -36 2 -17 3 -17 22
1 17 16 19 25 11 66 -5 30 -19 58 -37 77 l-29 30 21 37 c20 34 20 39 6 60 -13
20 -14 31 -3 70 7 26 15 77 18 114 6 67 6 67 -31 104 -31 31 -41 36 -74 32
-28 -2 -44 2 -58 15 -27 26 -58 37 -107 37 -35 0 -49 -7 -84 -40z"/>
<path d="M1358 1388 c-16 -37 -16 -39 0 -34 14 5 21 -5 36 -46 11 -33 35 -68
65 -98 35 -35 37 -36 9 -5 -35 37 -77 115 -78 142 0 6 6 13 14 15 11 2 9 10
-8 34 l-21 32 -17 -40z"/>
<path d="M1672 1194 c-19 -8 -34 -22 -38 -38 -3 -15 -15 -27 -27 -29 -22 -4
-22 -4 1 -6 28 -1 28 -22 0 -47 -25 -22 -78 -103 -78 -118 0 -6 13 12 29 39
16 28 38 58 49 68 19 18 22 18 44 3 54 -38 128 -6 128 55 0 65 -49 98 -108 73z"/>
<path d="M1527 1149 c7 -7 15 -10 18 -7 3 3 -2 9 -12 12 -14 6 -15 5 -6 -5z"/>
<path d="M2493 958 c-32 -16 -31 -56 3 -68 49 -19 81 -12 108 22 20 26 22 34
11 40 -25 14 -100 18 -122 6z"/>
<path d="M1486 891 c3 -9 9 -24 11 -33 7 -24 14 -22 36 8 22 30 21 33 -22 38
-27 3 -31 1 -25 -13z"/>
<path d="M2250 810 c-14 -11 -28 -20 -32 -20 -3 0 -17 -10 -31 -22 l-24 -22
20 -17 c19 -15 20 -19 7 -34 -30 -36 33 -5 77 38 41 39 42 41 27 69 -8 15 -16
28 -17 28 -1 0 -13 -9 -27 -20z"/>
<path d="M2550 778 c0 -19 -19 -72 -45 -123 -54 -107 -79 -213 -106 -445 -27
-236 -38 -210 86 -210 l104 0 12 43 c37 141 79 290 82 293 1 2 18 -58 37 -134
18 -75 37 -152 42 -169 l9 -33 105 0 105 0 -6 123 c-11 227 -40 389 -93 515
-24 58 -33 69 -77 93 -43 24 -125 50 -227 73 -26 6 -28 4 -28 -26z"/>
<path d="M817 420 c-72 -101 -176 -151 -318 -154 -70 -1 -90 2 -106 16 -21 20
-68 24 -78 8 -3 -6 -12 -73 -19 -150 l-12 -140 137 0 137 0 7 46 c12 85 24 95
24 22 l1 -68 124 0 124 0 7 183 c4 100 5 203 3 229 l-3 47 -28 -39z"/>
</g>
</svg>
