<?xml version="1.0" standalone="no"?>
<!DOCTYPE svg PUBLIC "-//W3C//DTD SVG 20010904//EN"
 "http://www.w3.org/TR/2001/REC-SVG-20010904/DTD/svg10.dtd">
<svg version="1.0" xmlns="http://www.w3.org/2000/svg"
 width="800.000000pt" height="544.000000pt" viewBox="0 0 800.000000 544.000000"
 preserveAspectRatio="xMidYMid meet">

<g transform="translate(0.000000,544.000000) scale(0.100000,-0.100000)"
fill="#000000" stroke="none">
<path d="M192 4687 c-13 -15 -3 -33 21 -38 25 -5 17 -24 -10 -24 -13 1 -19 -3
-14 -8 14 -14 56 -4 56 13 0 8 -12 21 -28 28 -30 14 -27 37 4 29 11 -3 19 -1
19 4 0 14 -36 11 -48 -4z"/>
<path d="M332 4659 l-2 -46 46 -1 c44 -1 45 0 42 26 -2 21 -9 27 -28 29 -15 1
-18 0 -7 -3 16 -5 15 -8 -7 -25 -13 -10 -27 -19 -30 -19 -2 0 -7 19 -9 43 l-4
42 -1 -46z m68 -29 c0 -5 -4 -10 -10 -10 -5 0 -10 5 -10 10 0 6 5 10 10 10 6
0 10 -4 10 -10z"/>
<path d="M690 4655 c0 -40 2 -45 23 -45 29 0 47 18 47 45 0 27 -18 45 -47 45
-21 0 -23 -5 -23 -45z m53 14 c14 -22 2 -49 -23 -49 -16 0 -20 6 -20 36 0 28
4 35 16 32 9 -2 21 -10 27 -19z"/>
<path d="M1102 4670 c0 -19 2 -27 5 -17 2 9 2 25 0 35 -3 9 -5 1 -5 -18z"/>
<path d="M608 4677 c-9 -23 8 -62 27 -65 18 -3 19 -2 3 8 -19 12 -24 36 -9 42
5 2 3 8 -4 15 -10 9 -14 9 -17 0z"/>
<path d="M848 4678 c-9 -25 5 -68 21 -67 10 0 11 2 4 6 -15 5 -17 40 -4 45 5
2 3 8 -4 15 -10 9 -15 9 -17 1z"/>
<path d="M264 4655 c-10 -24 4 -45 28 -44 l23 2 -22 4 c-31 6 -29 23 2 23 18
0 23 4 19 15 -4 8 -15 15 -25 15 -11 0 -22 -7 -25 -15z m33 -1 c-3 -3 -12 -4
-19 -1 -8 3 -5 6 6 6 11 1 17 -2 13 -5z"/>
<path d="M430 4646 c0 -14 5 -28 10 -31 6 -4 10 5 10 19 0 14 5 26 10 26 6 0
10 -11 10 -25 0 -14 5 -25 10 -25 6 0 10 11 10 25 0 34 18 32 23 -2 4 -26 4
-26 6 5 1 32 0 32 -44 32 -41 0 -45 -2 -45 -24z"/>
<path d="M560 4661 l25 -7 -22 -8 c-31 -10 -30 -36 2 -36 21 0 25 5 25 30 0
26 -3 30 -27 29 l-28 -1 25 -7z m20 -31 c0 -5 -7 -10 -16 -10 -8 0 -12 5 -9
10 3 6 10 10 16 10 5 0 9 -4 9 -10z"/>
<path d="M800 4661 c25 -7 25 -7 3 -13 -32 -9 -30 -38 3 -38 22 0 25 4 22 28
-2 21 -9 27 -28 29 l-25 2 25 -8z m15 -31 c-3 -5 -10 -10 -16 -10 -5 0 -9 5
-9 10 0 6 7 10 16 10 8 0 12 -4 9 -10z"/>
<path d="M910 4661 c25 -7 25 -7 3 -13 -32 -9 -30 -38 3 -38 22 0 25 4 22 28
-2 21 -9 27 -28 29 l-25 2 25 -8z m15 -31 c-3 -5 -10 -10 -16 -10 -5 0 -9 5
-9 10 0 6 7 10 16 10 8 0 12 -4 9 -10z"/>
<path d="M961 4638 c2 -31 2 -31 6 -5 2 15 10 27 18 27 8 0 16 -12 18 -27 4
-26 4 -26 6 5 1 28 -2 32 -24 32 -22 0 -25 -4 -24 -32z"/>
<path d="M1026 4654 c-8 -20 10 -44 33 -45 9 -1 5 -4 -9 -9 l-25 -8 28 -1 c25
-1 27 2 27 39 0 36 -3 40 -24 40 -13 0 -27 -7 -30 -16z m44 -8 c0 -21 -21 -31
-30 -15 -5 7 -6 17 -4 21 9 14 34 9 34 -6z"/>
<path d="M4186 3990 c-16 -5 -39 -19 -52 -31 -12 -11 -27 -18 -33 -14 -18 10
-69 -49 -76 -88 -4 -20 -4 -49 0 -64 8 -34 66 -89 99 -95 25 -5 26 -4 20 33
-5 32 -4 39 10 39 10 0 16 9 16 23 1 44 26 62 88 62 38 0 67 6 85 18 29 19 37
43 11 33 -8 -3 -12 -2 -9 4 3 6 2 10 -4 10 -6 0 -17 13 -26 30 -10 20 -27 32
-53 39 -42 12 -37 12 -76 1z"/>
<path d="M4756 3914 c-3 -8 -6 -64 -6 -124 0 -79 4 -111 14 -119 9 -8 70 -11
197 -9 l184 3 0 130 0 130 -191 3 c-168 2 -192 0 -198 -14z m379 -171 c-3 -12
-15 -32 -27 -43 -20 -18 -35 -20 -180 -20 l-158 0 1 98 c1 90 2 95 14 67 8
-16 14 -36 15 -42 0 -9 19 -13 60 -13 45 0 62 -4 66 -15 4 -8 15 -15 25 -15
11 0 22 7 25 15 5 11 22 15 64 15 l57 0 19 48 19 47 3 -60 c2 -32 1 -69 -3
-82z"/>
<path d="M184 3670 c1 -18 7 -25 21 -25 14 0 20 7 21 25 1 22 0 22 -3 3 -2
-13 -10 -23 -18 -23 -8 0 -16 10 -18 23 -3 19 -4 19 -3 -3z"/>
<path d="M285 3670 c-9 -15 4 -30 23 -29 15 1 14 2 -1 6 -11 3 -16 11 -13 19
6 16 0 19 -9 4z"/>
<path d="M330 3660 c0 -11 2 -20 4 -20 2 0 6 9 9 20 3 11 1 20 -4 20 -5 0 -9
-9 -9 -20z"/>
<path d="M361 3658 c0 -16 2 -18 6 -8 3 8 11 18 17 22 7 5 4 8 -6 8 -12 0 -18
-7 -17 -22z"/>
<path d="M430 3666 c0 -8 -6 -17 -12 -19 -8 -3 -6 -6 5 -6 11 -1 17 6 17 19 0
11 -2 20 -5 20 -3 0 -5 -6 -5 -14z"/>
<path d="M451 3658 c1 -16 3 -18 6 -6 2 9 12 19 21 21 12 3 10 5 -5 6 -18 1
-23 -4 -22 -21z"/>
<path d="M501 3664 c0 -11 3 -14 6 -6 3 7 2 16 -1 19 -3 4 -6 -2 -5 -13z"/>
<path d="M525 3670 c-9 -15 4 -30 23 -29 15 1 14 2 -1 6 -11 3 -16 11 -13 19
6 16 0 19 -9 4z"/>
<path d="M250 3650 c-13 -8 -12 -10 3 -10 9 0 17 5 17 10 0 12 -1 12 -20 0z"/>
<path d="M4756 3284 c-11 -30 -7 -229 6 -242 13 -13 341 -18 372 -6 13 5 16
27 16 135 l0 129 -194 0 c-168 0 -195 -2 -200 -16z m384 -98 c0 -66 -3 -78
-26 -105 l-26 -31 -159 0 -159 0 1 103 1 102 16 -47 16 -48 57 0 c38 0 61 -5
69 -15 7 -8 19 -15 27 -15 7 0 16 7 19 15 5 11 22 15 64 15 l58 0 18 50 c10
28 19 50 21 50 2 0 3 -33 3 -74z"/>
<path d="M180 3220 c0 -26 2 -29 14 -18 8 7 10 15 5 16 -15 6 -10 20 9 25 13
4 11 5 -5 6 -19 1 -23 -4 -23 -29z"/>
<path d="M515 3227 c-19 -15 -13 -37 11 -37 8 0 14 10 14 25 0 29 0 29 -25 12z
m15 -17 c0 -5 -4 -10 -10 -10 -5 0 -10 5 -10 10 0 6 5 10 10 10 6 0 10 -4 10
-10z"/>
<path d="M257 3214 c5 -14 3 -16 -11 -11 -10 4 -15 3 -11 -3 9 -15 35 -12 35
4 0 8 -4 18 -10 21 -6 4 -7 -1 -3 -11z"/>
<path d="M380 3221 c0 -7 -4 -9 -10 -6 -6 3 -7 -1 -3 -10 5 -13 7 -14 14 -3 7
11 11 10 19 -2 5 -8 10 -10 10 -4 0 6 -7 17 -15 24 -11 9 -15 9 -15 1z"/>
<path d="M470 3215 c0 -8 2 -15 4 -15 2 0 6 7 10 15 3 8 1 15 -4 15 -6 0 -10
-7 -10 -15z"/>
<path d="M290 3200 c-13 -8 -12 -10 3 -10 9 0 17 5 17 10 0 12 -1 12 -20 0z"/>
<path d="M330 3200 c-13 -8 -12 -10 3 -10 9 0 17 5 17 10 0 12 -1 12 -20 0z"/>
<path d="M438 3193 c7 -3 16 -2 19 1 4 3 -2 6 -13 5 -11 0 -14 -3 -6 -6z"/>
<path d="M4105 2901 c-51 -13 -94 -40 -110 -71 -12 -24 -15 -76 -14 -297 1
-147 4 -315 8 -373 6 -106 0 -207 -20 -290 -7 -31 -7 -54 0 -73 9 -22 6 -31
-12 -54 -15 -17 -24 -44 -26 -70 l-3 -43 65 0 64 0 84 181 c70 153 84 191 86
238 1 31 6 139 10 241 l8 185 33 -170 c18 -93 37 -186 42 -206 5 -19 13 -146
16 -282 l7 -247 55 0 c70 0 117 29 101 63 -7 15 -2 101 15 290 24 250 25 270
9 293 -14 22 -14 32 -4 78 11 48 8 77 -29 302 -23 137 -43 259 -46 272 -6 30
-34 29 -34 -2 0 -31 -25 -56 -54 -56 -25 0 -56 28 -56 51 0 8 -23 21 -58 32
-60 18 -87 20 -137 8z"/>
<path d="M4755 2648 c-3 -13 -5 -70 -3 -128 l3 -105 198 -3 197 -2 0 130 0
130 -195 0 c-194 0 -195 0 -200 -22z m370 -185 c-25 -37 -57 -44 -209 -41
l-141 3 -2 100 -1 100 16 -47 16 -48 62 0 c46 0 63 -4 68 -15 3 -8 12 -15 21
-15 9 0 18 7 21 15 5 11 21 15 61 15 l54 0 22 49 22 48 3 -69 c2 -51 -1 -77
-13 -95z"/>
<path d="M3879 1532 c-6 -18 -9 -34 -7 -36 1 -1 40 -18 85 -38 77 -34 83 -35
88 -17 14 44 -52 115 -112 121 -41 3 -43 2 -54 -30z"/>
<path d="M4403 1507 c-30 -10 -33 -15 -33 -49 l0 -38 100 0 c90 0 99 2 93 18
-10 29 -25 42 -67 63 -44 21 -46 21 -93 6z"/>
<path d="M3588 1423 c23 -2 61 -2 85 0 23 2 4 4 -43 4 -47 0 -66 -2 -42 -4z"/>
<path d="M4748 1423 c23 -2 61 -2 85 0 23 2 4 4 -43 4 -47 0 -66 -2 -42 -4z"/>
</g>
</svg>
